Coordinates
version=1
nRows=34
nColumns=17
inDegrees=yes

Units are S.I. units (second, meters, Newtons, ...)
If the header above contains a line with 'inDegrees', this indicates whether rotational values are in degrees (yes) or radians (no).

endheader
time	bJoint_3	seatpos	hipangle	kneeangle	footangle	lbackangle	uarmleft_up	uarmleft_out	uarmleft_trn	se_inout	se_updown	uarmright_up	uarmright_out	uarmright_trn	pe_inout	pe_updown
      5.24500000	      0.00039733	     -0.00359357	     93.15089320	      5.60941287	      8.76030606	    -40.21689073	     61.87544867	     -5.27334514	     -9.44155174	    -75.51067604	    -22.86166786	     62.39681319	     -6.07058526	    -10.60173674	    -76.87868260	    -21.89346572
      5.25000000	      0.00039580	     -0.00366136	     93.06029685	      5.77798694	      8.83828378	    -40.21990265	     61.53158593	     -4.79226102	     -9.43483231	    -74.40865036	    -22.76763794	     62.05405494	     -5.59568960	    -10.59025921	    -75.80194245	    -21.81711685
      5.25500000	      0.00035235	     -0.00373185	     92.96800315	      5.94973570	      8.91773885	    -40.20917333	     61.15772745	     -4.18673436	     -9.46224535	    -73.16029023	    -22.66949231	     61.68023446	     -4.98735465	    -10.61151581	    -74.57680041	    -21.73641964
      5.26000000	      0.00033633	     -0.00374814	     92.94852051	      5.98600693	      8.93452745	    -40.20556136	     60.88042760	     -3.76017288	     -9.55911609	    -72.09257486	    -22.63399593	     61.40190535	     -4.55563071	    -10.70562076	    -73.52297063	    -21.71669431
      5.26500000	      0.00033223	     -0.00380703	     92.87429917	      6.12415013	      8.99844930	    -40.20589202	     60.52528899	     -3.27115938	     -9.55083065	    -70.96621465	    -22.51028289	     61.05231483	     -4.07816300	    -10.69188531	    -72.42287118	    -21.61361788
      5.27000000	      0.00025610	     -0.00383915	     92.83506707	      6.19718150	      9.03224858	    -40.17989157	     60.14747683	     -2.79932883	     -9.54712269	    -69.88503137	    -22.34962960	     60.66589246	     -3.58821134	    -10.68244186	    -71.34440870	    -21.46631904
      5.27500000	      0.00027528	     -0.00408651	     92.54466174	      6.73788621	      9.28254795	    -40.19323362	     59.79617855	     -2.31176095	     -9.53691446	    -68.75779385	    -22.19995842	     60.32050818	     -3.11658627	    -10.66841216	    -70.25330295	    -21.34061671
      5.28000000	      0.00028470	     -0.00403365	     92.60475190	      6.62598550	      9.23073740	    -40.19543469	     59.30538216	     -1.85724308	     -9.45569510	    -67.52762315	    -21.95387229	     59.81989071	     -2.64277340	    -10.57625994	    -69.05199290	    -21.11582867
      5.28500000	      0.00026590	     -0.00412986	     92.49616470	      6.82820596	      9.32437065	    -40.19154678	     58.97487382	     -1.35868470	     -9.47739390	    -66.41718394	    -21.81145629	     59.49250151	     -2.15315918	    -10.59238435	    -67.95426786	    -20.99371552
      5.29000000	      0.00022686	     -0.00441094	     92.19607682	      7.38722682	      9.58330365	    -40.18109428	     58.58682198	     -0.88944341	     -9.45130821	    -65.33228441	    -21.59953456	     59.10052905	     -1.68246634	    -10.55992269	    -66.88209045	    -20.80081730
      5.29500000	      0.00021074	     -0.00450757	     92.09804161	      7.56990652	      9.66794813	    -40.17667012	     58.30134600	     -0.46220833	     -9.54613035	    -64.24580801	    -21.50104322	     58.81451031	     -1.24877869	    -10.65271256	    -65.81403544	    -20.72344742
      5.30000000	      0.00020305	     -0.00462407	     91.98281914	      7.78464606	      9.76746520	    -40.17499935	     58.00090169	      0.17055415	     -9.64836485	    -62.96073112	    -21.38336854	     58.51950996	     -0.61647131	    -10.74820684	    -64.55024844	    -20.63036587
      5.30500000	      0.00019365	     -0.00475147	     91.86044661	      8.01275220	      9.87319881	    -40.17047113	     57.71876179	      0.62491174	     -9.65438452	    -62.07107483	    -21.20255543	     58.23562908	     -0.16127481	    -10.74786964	    -63.67140010	    -20.46620842
      5.31000000	      0.00019807	     -0.00470049	     91.90910160	      7.92205408	      9.83115568	    -40.17063086	     57.25485007	      1.02978061	     -9.64729899	    -60.85657716	    -20.93926058	     57.77058542	      0.24646758	    -10.73769054	    -62.46909486	    -20.22702173
      5.31500000	      0.00017856	     -0.00490236	     91.71957389	      8.27539046	      9.99496436	    -40.16541918	     56.93650893	      1.52778418	     -9.69167358	    -59.75210561	    -20.75267255	     57.45198375	      0.74523350	    -10.77767487	    -61.38158717	    -20.06166669
      5.32000000	      0.00012246	     -0.00494550	     91.68068734	      8.34790578	     10.02859311	    -40.14477125	     56.64672193	      2.03520807	     -9.76890748	    -58.66134695	    -20.59819106	     57.15965764	      1.26244807	    -10.85220641	    -60.28664298	    -19.92561116
      5.32500000	      0.00014882	     -0.00520448	     91.45124387	      8.77581946	     10.22706333	    -40.15274296	     56.36732117	      2.41228201	     -9.79690153	    -57.77931570	    -20.41685502	     56.88122932	      1.63498083	    -10.87525878	    -59.42923446	    -19.76420581
      5.33000000	      0.00015821	     -0.00530586	     91.36455229	      8.93753902	     10.30209131	    -40.15382740	     55.88608138	      2.89829823	     -9.76232934	    -56.53738134	    -20.06186941	     56.38620835	      2.11133027	    -10.73128005	    -58.20394025	    -19.50146737
      5.33500000	      0.00014358	     -0.00550818	     91.19593434	      9.25214558	     10.44807993	    -40.14920941	     55.58794313	      3.33035078	     -9.85923224	    -55.44578990	    -19.89664943	     56.09965166	      2.55739668	    -10.83885636	    -57.10376169	    -19.36629420
      5.34000000	      0.00014602	     -0.00572582	     91.02075179	      9.57908254	     10.59983433	    -40.13907559	     55.33005950	      3.79336681	     -9.89636883	    -54.57430721	    -19.70162595	     55.83979322	      3.02682337	    -10.87345570	    -56.22680973	    -19.18665862
      5.34500000	      0.00012450	     -0.00590373	     90.88189123	      9.83829230	     10.72018354	    -39.94024161	     54.89033086	      4.16500501	     -9.87313911	    -53.59499458	    -19.42614017	     55.39874006	      3.39985366	    -10.84322371	    -55.25902731	    -18.93375472
      5.35000000	      0.00012419	     -0.00608938	     90.74081347	     10.10169463	     10.84250810	    -39.54530876	     54.51995783	      4.59923096	     -9.86671831	    -52.81308887	    -19.21688293	     55.02415029	      3.83457865	    -10.83438585	    -54.47713286	    -18.73279280
      5.35500000	      0.00012326	     -0.00582162	     90.94550337	      9.71954139	     10.66504476	    -39.15589276	     54.04153237	      5.05450727	     -9.83134012	    -51.87780802	    -18.94258096	     54.52647091	      4.28466266	    -10.78484480	    -53.54819695	    -18.44552283
      5.36000000	      0.00013013	     -0.00596991	     90.83114055	      9.93304086	     10.76418141	    -38.75872285	     53.65617773	      5.50780974	     -9.82456179	    -51.04463129	    -18.72819453	     54.16066634	      4.74521061	    -10.78832861	    -52.72641192	    -18.28192824
      5.36500000	      0.00012930	     -0.00578842	     90.97145479	      9.67109862	     10.64255341	    -38.36210685	     53.12568718	      5.89287483	     -9.66785694	    -50.31189225	    -18.34797724	     53.62348812	      5.12957623	    -10.63006331	    -51.99488534	    -17.91486839
      5.37000000	      0.00012434	     -0.00599018	     90.81538604	      9.96245061	     10.77783665	    -37.95709125	     52.72026571	      6.38515978	     -9.74310274	    -49.33841885	    -18.14834500	     53.21426539	      5.62142170	    -10.69883533	    -51.03038406	    -17.72957279
      5.37500000	      0.00017568	     -0.00597173	     90.82978934	      9.93556405	     10.76535340	    -37.58245978	     52.19896886	      6.70475720	     -9.63035047	    -48.61230974	    -17.79473067	     52.69414015	      5.94183262	    -10.58537141	    -50.29135525	    -17.39188965
      5.38000000	      0.00013507	     -0.00577486	     90.98210370	      9.65122135	     10.63332505	    -37.15695806	     51.79907651	      7.15665137	     -9.64024014	    -47.77979923	    -17.57626315	     52.28847344	      6.39907894	    -10.59361424	    -49.47223472	    -17.19126747
      5.38500000	      0.00010422	     -0.00551612	     91.18898708	      9.26510348	     10.45409056	    -36.74656822	     51.42943054	      7.50425672	     -9.63457054	    -47.14057430	    -17.39379282	     51.91928323	      6.74693254	    -10.58509200	    -48.83678256	    -17.02062927
      5.39000000	      0.00005908	     -0.00559932	     91.12183010	      9.39043351	     10.51226361	    -36.39939187	     50.85778544	      8.08813580	     -9.61166317	    -45.93742234	    -17.00860517	     51.34167204	      7.33992712	    -10.55871531	    -47.62304740	    -16.65646834
      5.39500000	      0.00013837	     -0.00593835	     90.85520468	      9.88811253	     10.74331721	    -36.02330053	     50.46921402	      8.47745024	     -9.66049216	    -45.11029967	    -16.81886102	     50.95415904	      7.73343626	    -10.60649859	    -46.80268681	    -16.48370125
      5.40000000	      0.00014655	     -0.00598483	     90.81948146	      9.95480455	     10.77428601	    -35.61325627	     50.02230213	      8.79390904	     -9.60120723	    -44.50953184	    -16.53328314	     50.51350830	      8.04351680	    -10.54046138	    -46.20592432	    -16.20744352
      5.40500000	      0.00018651	     -0.00595422	     90.84315621	      9.91060807	     10.75376428	    -35.23005782	     49.45289602	      9.17170294	     -9.54136091	    -43.57772810	    -16.16302526	     49.92987620	      8.42380231	    -10.47987114	    -45.26039310	    -15.85625134
      5.41000000	      0.00012740	     -0.00601461	     90.79692512	      9.99691999	     10.79384511	    -34.86462130	     49.02841840	      9.58196465	     -9.46746989	    -42.88635149	    -15.87299624	     49.50664578	      8.84240966	    -10.39129233	    -44.56441407	    -15.59008114
